<?xml version="1.0" encoding="UTF-8" standalone="no"?>
<!DOCTYPE svg PUBLIC "-//W3C//DTD SVG 1.1//EN"
 "http://www.w3.org/Graphics/SVG/1.1/DTD/svg11.dtd">
<!-- Generated by graphviz version 15.1.1 (20260805.0921)
 -->
<!-- Title: processRepairOrder Pages: 1 -->
<svg width="886pt" height="1747pt"
 viewBox="0.00 0.00 886.00 1747.00" xmlns="http://www.w3.org/2000/svg" xmlns:xlink="http://www.w3.org/1999/xlink">
<g id="graph0" class="graph" transform="scale(1 1) rotate(0) translate(18 1729.35)">
<title>processRepairOrder</title>
<polygon fill="white" stroke="none" points="-18,18 -18,-1729.35 868.08,-1729.35 868.08,18 -18,18"/>
<text xml:space="preserve" text-anchor="middle" x="425.04" y="-1688.35" font-family="Hiragino Sans GB" font-size="20.00">MaintenanceServiceImpl.processRepairOrder() 控制流图</text>
<!-- N1&#45;&gt;N2 -->
<g id="edge1" class="edge">
<title>N1&#45;&gt;N2</title>
<path fill="none" stroke="#455a64" stroke-width="1.25" d="M671.04,-1625.36C671.04,-1613.24 671.04,-1599.03 671.04,-1586.8"/>
<polygon fill="#455a64" stroke="#455a64" stroke-width="1.25" points="673.67,-1586.87 671.04,-1579.37 668.42,-1586.87 673.67,-1586.87"/>
</g>
<!-- N2&#45;&gt;N3 -->
<g id="edge2" class="edge">
<title>N2&#45;&gt;N3</title>
<path fill="none" stroke="#455a64" stroke-width="1.25" d="M671.04,-1536.5C671.04,-1525.8 671.04,-1511.88 671.04,-1497.84"/>
<polygon fill="#455a64" stroke="#455a64" stroke-width="1.25" points="673.67,-1498.02 671.04,-1490.52 668.42,-1498.02 673.67,-1498.02"/>
</g>
<!-- N3&#45;&gt;N4 -->
<g id="edge3" class="edge">
<title>N3&#45;&gt;N4</title>
<path fill="none" stroke="#455a64" stroke-width="1.25" d="M637.29,-1392.25C620.43,-1371.2 600.11,-1345.84 583.44,-1325.02"/>
<polygon fill="#455a64" stroke="#455a64" stroke-width="1.25" points="585.62,-1323.55 578.88,-1319.33 581.52,-1326.83 585.62,-1323.55"/>
<text xml:space="preserve" text-anchor="middle" x="613.07" y="-1348.28" font-family="Hiragino Sans GB" font-size="11.00">是</text>
</g>
<!-- N3&#45;&gt;N16 -->
<g id="edge4" class="edge">
<title>N3&#45;&gt;N16</title>
<path fill="none" stroke="#455a64" stroke-width="1.25" d="M704.79,-1392.25C740.28,-1347.94 791.04,-1284.58 791.04,-1284.58 791.04,-1284.58 791.04,-1284.58 791.04,-256.23 791.04,-256.23 676.04,-169.33 676.04,-169.33 676.04,-169.33 664.39,-160.7 651.53,-151.17"/>
<polygon fill="#455a64" stroke="#455a64" stroke-width="1.25" points="653.43,-149.32 645.85,-146.97 650.31,-153.54 653.43,-149.32"/>
<text xml:space="preserve" text-anchor="middle" x="796.66" y="-822.85" font-family="Hiragino Sans GB" font-size="11.00">否</text>
</g>
<!-- N4&#45;&gt;N5 -->
<g id="edge5" class="edge">
<title>N4&#45;&gt;N5</title>
<path fill="none" stroke="#455a64" stroke-width="1.25" d="M539.94,-1245.49C534.81,-1228.32 528.67,-1207.79 523.29,-1189.82"/>
<polygon fill="#455a64" stroke="#455a64" stroke-width="1.25" points="525.93,-1189.47 521.26,-1183.04 520.9,-1190.98 525.93,-1189.47"/>
<text xml:space="preserve" text-anchor="middle" x="537.39" y="-1209.23" font-family="Hiragino Sans GB" font-size="11.00">是</text>
</g>
<!-- N4&#45;&gt;N16 -->
<g id="edge6" class="edge">
<title>N4&#45;&gt;N16</title>
<path fill="none" stroke="#455a64" stroke-width="1.25" d="M583.63,-1250.44C624.71,-1209.94 690.04,-1145.53 690.04,-1145.53 690.04,-1145.53 690.04,-1145.53 690.04,-256.23 690.04,-256.23 654.49,-192.11 633.35,-153.98"/>
<polygon fill="#455a64" stroke="#455a64" stroke-width="1.25" points="635.67,-152.76 629.74,-147.47 631.08,-155.3 635.67,-152.76"/>
<text xml:space="preserve" text-anchor="middle" x="695.66" y="-753.33" font-family="Hiragino Sans GB" font-size="11.00">否</text>
</g>
<!-- N5&#45;&gt;N6 -->
<g id="edge7" class="edge">
<title>N5&#45;&gt;N6</title>
<path fill="none" stroke="#455a64" stroke-width="1.25" d="M473.16,-1116.37C446.61,-1096.81 411.05,-1070.63 385.16,-1051.55"/>
<polygon fill="#455a64" stroke="#455a64" stroke-width="1.25" points="386.91,-1049.58 379.31,-1047.25 383.79,-1053.81 386.91,-1049.58"/>
<text xml:space="preserve" text-anchor="middle" x="426.65" y="-1070.18" font-family="Hiragino Sans GB" font-size="11.00">是</text>
</g>
<!-- N5&#45;&gt;N7 -->
<g id="edge8" class="edge">
<title>N5&#45;&gt;N7</title>
<path fill="none" stroke="#455a64" stroke-width="1.25" d="M497.55,-1108.33C483.03,-1067.43 461.04,-1005.48 461.04,-1005.48 461.04,-1005.48 426.03,-981.69 397.45,-962.26"/>
<polygon fill="#455a64" stroke="#455a64" stroke-width="1.25" points="399.21,-960.29 391.53,-958.24 396.26,-964.63 399.21,-960.29"/>
<text xml:space="preserve" text-anchor="middle" x="480.47" y="-1020.6" font-family="Hiragino Sans GB" font-size="11.00">否</text>
</g>
<!-- N6&#45;&gt;N7 -->
<g id="edge9" class="edge">
<title>N6&#45;&gt;N7</title>
<path fill="none" stroke="#455a64" stroke-width="1.25" d="M353.26,-1005.14C354.57,-993.75 356.26,-979.1 357.72,-966.35"/>
<polygon fill="#455a64" stroke="#455a64" stroke-width="1.25" points="360.33,-966.69 358.58,-958.94 355.11,-966.09 360.33,-966.69"/>
</g>
<!-- N7&#45;&gt;N8 -->
<g id="edge10" class="edge">
<title>N7&#45;&gt;N8</title>
<path fill="none" stroke="#455a64" stroke-width="1.25" d="M361.04,-915.93C361.04,-905.06 361.04,-891.02 361.04,-877.4"/>
<polygon fill="#455a64" stroke="#455a64" stroke-width="1.25" points="363.67,-877.46 361.04,-869.96 358.42,-877.46 363.67,-877.46"/>
</g>
<!-- N8&#45;&gt;N9 -->
<g id="edge12" class="edge">
<title>N8&#45;&gt;N9</title>
<path fill="none" stroke="#455a64" stroke-width="1.25" d="M324.25,-798.33C299.08,-778.95 266.03,-753.48 241.78,-734.8"/>
<polygon fill="#455a64" stroke="#455a64" stroke-width="1.25" points="243.6,-732.89 236.06,-730.39 240.39,-737.05 243.6,-732.89"/>
<text xml:space="preserve" text-anchor="middle" x="281.56" y="-753.33" font-family="Hiragino Sans GB" font-size="11.00">否</text>
</g>
<!-- N8&#45;&gt;N12 -->
<g id="edge11" class="edge">
<title>N8&#45;&gt;N12</title>
<path fill="none" stroke="#455a64" stroke-width="1.25" d="M370.45,-789.95C374.76,-773.13 379.79,-753.5 383.8,-737.86"/>
<polygon fill="#455a64" stroke="#455a64" stroke-width="1.25" points="386.24,-738.9 385.55,-730.99 381.15,-737.6 386.24,-738.9"/>
<text xml:space="preserve" text-anchor="middle" x="385.23" y="-753.33" font-family="Hiragino Sans GB" font-size="11.00">是</text>
</g>
<!-- N9&#45;&gt;N10 -->
<g id="edge13" class="edge">
<title>N9&#45;&gt;N10</title>
<path fill="none" stroke="#455a64" stroke-width="1.25" d="M190.46,-688.11C179.61,-676.75 168.04,-664.63 168.04,-664.63 168.04,-664.63 163.45,-651.01 158.2,-635.45"/>
<polygon fill="#455a64" stroke="#455a64" stroke-width="1.25" points="160.74,-634.74 155.85,-628.48 155.76,-636.42 160.74,-634.74"/>
</g>
<!-- N10&#45;&gt;N9 -->
<g id="edge15" class="edge">
<title>N10&#45;&gt;N9</title>
<path fill="none" stroke="#455a64" stroke-width="1.25" d="M162.15,-624.38C172.14,-642.12 184.22,-663.55 193.62,-680.21"/>
<polygon fill="#455a64" stroke="#455a64" stroke-width="1.25" points="191.09,-681.08 197.06,-686.33 195.67,-678.51 191.09,-681.08"/>
<text xml:space="preserve" text-anchor="middle" x="189.52" y="-654.18" font-family="Hiragino Sans GB" font-size="11.00">否</text>
</g>
<!-- N10&#45;&gt;N11 -->
<g id="edge14" class="edge">
<title>N10&#45;&gt;N11</title>
<path fill="none" stroke="#455a64" stroke-width="1.25" d="M143.04,-548.89C143.04,-505.91 143.04,-437.91 143.04,-396.64"/>
<polygon fill="#455a64" stroke="#455a64" stroke-width="1.25" points="145.67,-396.64 143.04,-389.14 140.42,-396.64 145.67,-396.64"/>
<text xml:space="preserve" text-anchor="middle" x="148.66" y="-515.13" font-family="Hiragino Sans GB" font-size="11.00">是</text>
</g>
<!-- N11&#45;&gt;N17 -->
<g id="edge16" class="edge">
<title>N11&#45;&gt;N17</title>
<path fill="none" stroke="#455a64" stroke-width="1.25" d="M149.9,-333.32C161.57,-289.3 184.04,-204.58 184.04,-204.58 184.04,-204.58 282.29,-112.44 336.36,-61.74"/>
<polygon fill="#455a64" stroke="#455a64" stroke-width="1.25" points="337.99,-63.81 341.66,-56.76 334.4,-59.98 337.99,-63.81"/>
</g>
<!-- N12&#45;&gt;N13 -->
<g id="edge17" class="edge">
<title>N12&#45;&gt;N13</title>
<path fill="none" stroke="#455a64" stroke-width="1.25" d="M400.07,-688.01C407.23,-672.48 416.04,-653.38 416.04,-653.38 416.04,-653.38 422.64,-643.26 430.54,-631.13"/>
<polygon fill="#455a64" stroke="#455a64" stroke-width="1.25" points="432.65,-632.7 434.55,-624.99 428.25,-629.84 432.65,-632.7"/>
</g>
<!-- N13&#45;&gt;N12 -->
<g id="edge19" class="edge">
<title>N13&#45;&gt;N12</title>
<path fill="none" stroke="#455a64" stroke-width="1.25" d="M438.19,-623.91C428.16,-641.72 415.97,-663.35 406.5,-680.15"/>
<polygon fill="#455a64" stroke="#455a64" stroke-width="1.25" points="404.41,-678.51 403.02,-686.33 408.99,-681.08 404.41,-678.51"/>
<text xml:space="preserve" text-anchor="middle" x="425.71" y="-654.18" font-family="Hiragino Sans GB" font-size="11.00">否</text>
</g>
<!-- N13&#45;&gt;N14 -->
<g id="edge18" class="edge">
<title>N13&#45;&gt;N14</title>
<path fill="none" stroke="#455a64" stroke-width="1.25" d="M457.04,-548.84C457.04,-533.64 457.04,-516.12 457.04,-500.16"/>
<polygon fill="#455a64" stroke="#455a64" stroke-width="1.25" points="459.67,-500.37 457.04,-492.87 454.42,-500.37 459.67,-500.37"/>
<text xml:space="preserve" text-anchor="middle" x="462.66" y="-515.13" font-family="Hiragino Sans GB" font-size="11.00">是</text>
</g>
<!-- N14&#45;&gt;N15 -->
<g id="edge20" class="edge">
<title>N14&#45;&gt;N15</title>
<path fill="none" stroke="#455a64" stroke-width="1.25" d="M441.07,-413.91C428.27,-385.46 410.1,-345.07 395.48,-312.56"/>
<polygon fill="#455a64" stroke="#455a64" stroke-width="1.25" points="397.89,-311.53 392.42,-305.77 393.11,-313.68 397.89,-311.53"/>
<text xml:space="preserve" text-anchor="middle" x="432.39" y="-355.38" font-family="Hiragino Sans GB" font-size="11.00">是</text>
</g>
<!-- N14&#45;&gt;N16 -->
<g id="edge21" class="edge">
<title>N14&#45;&gt;N16</title>
<path fill="none" stroke="#455a64" stroke-width="1.25" d="M481.23,-416C511.11,-374.72 558.04,-309.88 558.04,-309.88 558.04,-309.88 591.95,-206.18 608.78,-154.69"/>
<polygon fill="#455a64" stroke="#455a64" stroke-width="1.25" points="611.2,-155.76 611.03,-147.81 606.21,-154.13 611.2,-155.76"/>
<text xml:space="preserve" text-anchor="middle" x="597.65" y="-252.4" font-family="Hiragino Sans GB" font-size="11.00">否</text>
</g>
<!-- N15&#45;&gt;N16 -->
<g id="edge23" class="edge">
<title>N15&#45;&gt;N16</title>
<path fill="none" stroke="#455a64" stroke-width="1.25" d="M433.37,-223.46C476.73,-200.66 533.55,-170.79 572.66,-150.24"/>
<polygon fill="#455a64" stroke="#455a64" stroke-width="1.25" points="573.63,-152.69 579.04,-146.88 571.18,-148.04 573.63,-152.69"/>
<text xml:space="preserve" text-anchor="middle" x="536.72" y="-170.13" font-family="Hiragino Sans GB" font-size="11.00">否</text>
</g>
<!-- N15&#45;&gt;N17 -->
<g id="edge22" class="edge">
<title>N15&#45;&gt;N17</title>
<path fill="none" stroke="#455a64" stroke-width="1.25" d="M371.04,-203.86C371.04,-161.73 371.04,-103.59 371.04,-66.19"/>
<polygon fill="#455a64" stroke="#455a64" stroke-width="1.25" points="373.67,-66.54 371.04,-59.04 368.42,-66.54 373.67,-66.54"/>
<text xml:space="preserve" text-anchor="middle" x="376.66" y="-120.55" font-family="Hiragino Sans GB" font-size="11.00">是</text>
</g>
<!-- N16&#45;&gt;N17 -->
<g id="edge24" class="edge">
<title>N16&#45;&gt;N17</title>
<path fill="none" stroke="#455a64" stroke-width="1.25" d="M567.16,-104.77C529.32,-90.2 477.38,-70.18 436.45,-54.41"/>
<polygon fill="#455a64" stroke="#455a64" stroke-width="1.25" points="437.6,-52.05 429.66,-51.8 435.71,-56.94 437.6,-52.05"/>
</g>
<!-- N1 -->
<g id="node1" class="node">
<title>N1</title>
<ellipse fill="#e8f5e9" stroke="#263238" stroke-width="1.5" cx="671.04" cy="-1654.14" rx="33.26" ry="28.21"/>
<text xml:space="preserve" text-anchor="middle" x="671.04" y="-1655.49" font-family="Hiragino Sans GB" font-size="12.00">N1</text>
<text xml:space="preserve" text-anchor="middle" x="671.04" y="-1642.74" font-family="Hiragino Sans GB" font-size="12.00">开始</text>
</g>
<!-- N2 -->
<g id="node2" class="node">
<title>N2</title>
<polygon fill="#f8fafc" stroke="#263238" stroke-width="1.5" points="736.56,-1576.93 605.52,-1576.93 605.52,-1537.03 736.56,-1537.03 736.56,-1576.93"/>
<text xml:space="preserve" text-anchor="middle" x="671.04" y="-1558.33" font-family="Hiragino Sans GB" font-size="12.00">N2</text>
<text xml:space="preserve" text-anchor="middle" x="671.04" y="-1545.58" font-family="Hiragino Sans GB" font-size="12.00">读取工单与派单信息</text>
</g>
<!-- N3 -->
<g id="node3" class="node">
<title>N3</title>
<polygon fill="#fff3e0" stroke="#263238" stroke-width="1.5" points="671.04,-1488.03 492,-1435.38 671.04,-1382.73 850.08,-1435.38 671.04,-1488.03"/>
<text xml:space="preserve" text-anchor="middle" x="671.04" y="-1443.1" font-family="Hiragino Sans GB" font-size="12.00">N3</text>
<text xml:space="preserve" text-anchor="middle" x="671.04" y="-1430.35" font-family="Hiragino Sans GB" font-size="12.00">当前维修人员是否为该工单的</text>
<text xml:space="preserve" text-anchor="middle" x="671.04" y="-1417.6" font-family="Hiragino Sans GB" font-size="12.00">派单对象？</text>
</g>
<!-- N4 -->
<g id="node4" class="node">
<title>N4</title>
<polygon fill="#fff3e0" stroke="#263238" stroke-width="1.5" points="551.04,-1323.48 372,-1283.58 551.04,-1243.68 730.08,-1283.58 551.04,-1323.48"/>
<text xml:space="preserve" text-anchor="middle" x="551.04" y="-1284.93" font-family="Hiragino Sans GB" font-size="12.00">N4</text>
<text xml:space="preserve" text-anchor="middle" x="551.04" y="-1272.18" font-family="Hiragino Sans GB" font-size="12.00">工单当前状态是否允许维修？</text>
</g>
<!-- N5 -->
<g id="node5" class="node">
<title>N5</title>
<polygon fill="#fff3e0" stroke="#263238" stroke-width="1.5" points="510.04,-1184.43 391,-1144.53 510.04,-1104.63 629.08,-1144.53 510.04,-1184.43"/>
<text xml:space="preserve" text-anchor="middle" x="510.04" y="-1145.88" font-family="Hiragino Sans GB" font-size="12.00">N5</text>
<text xml:space="preserve" text-anchor="middle" x="510.04" y="-1133.13" font-family="Hiragino Sans GB" font-size="12.00">是否为返修工单？</text>
</g>
<!-- N6 -->
<g id="node6" class="node">
<title>N6</title>
<polygon fill="#f8fafc" stroke="#263238" stroke-width="1.5" points="440.56,-1045.38 261.52,-1045.38 261.52,-1005.48 440.56,-1005.48 440.56,-1045.38"/>
<text xml:space="preserve" text-anchor="middle" x="351.04" y="-1026.78" font-family="Hiragino Sans GB" font-size="12.00">N6</text>
<text xml:space="preserve" text-anchor="middle" x="351.04" y="-1014.03" font-family="Hiragino Sans GB" font-size="12.00">读取返修原因及历史维修记录</text>
</g>
<!-- N7 -->
<g id="node7" class="node">
<title>N7</title>
<polygon fill="#f8fafc" stroke="#263238" stroke-width="1.5" points="426.56,-956.48 295.52,-956.48 295.52,-916.58 426.56,-916.58 426.56,-956.48"/>
<text xml:space="preserve" text-anchor="middle" x="361.04" y="-937.88" font-family="Hiragino Sans GB" font-size="12.00">N7</text>
<text xml:space="preserve" text-anchor="middle" x="361.04" y="-925.13" font-family="Hiragino Sans GB" font-size="12.00">执行现场检查与维修</text>
</g>
<!-- N8 -->
<g id="node8" class="node">
<title>N8</title>
<polygon fill="#fff3e0" stroke="#263238" stroke-width="1.5" points="361.04,-867.58 230,-827.68 361.04,-787.78 492.08,-827.68 361.04,-867.58"/>
<text xml:space="preserve" text-anchor="middle" x="361.04" y="-829.03" font-family="Hiragino Sans GB" font-size="12.00">N8</text>
<text xml:space="preserve" text-anchor="middle" x="361.04" y="-816.28" font-family="Hiragino Sans GB" font-size="12.00">本次是否完成维修？</text>
</g>
<!-- N9 -->
<g id="node9" class="node">
<title>N9</title>
<polygon fill="#f8fafc" stroke="#263238" stroke-width="1.5" points="262.56,-728.53 155.52,-728.53 155.52,-688.63 262.56,-688.63 262.56,-728.53"/>
<text xml:space="preserve" text-anchor="middle" x="209.04" y="-709.93" font-family="Hiragino Sans GB" font-size="12.00">N9</text>
<text xml:space="preserve" text-anchor="middle" x="209.04" y="-697.18" font-family="Hiragino Sans GB" font-size="12.00">填写未完成原因</text>
</g>
<!-- N10 -->
<g id="node10" class="node">
<title>N10</title>
<polygon fill="#fff3e0" stroke="#263238" stroke-width="1.5" points="143.04,-629.38 0,-589.48 143.04,-549.58 286.08,-589.48 143.04,-629.38"/>
<text xml:space="preserve" text-anchor="middle" x="143.04" y="-590.83" font-family="Hiragino Sans GB" font-size="12.00">N10</text>
<text xml:space="preserve" text-anchor="middle" x="143.04" y="-578.08" font-family="Hiragino Sans GB" font-size="12.00">未完成原因是否有效？</text>
</g>
<!-- N11 -->
<g id="node11" class="node">
<title>N11</title>
<polygon fill="#f8fafc" stroke="#263238" stroke-width="1.5" points="220.56,-386.53 65.52,-386.53 65.52,-333.88 220.56,-333.88 220.56,-386.53"/>
<text xml:space="preserve" text-anchor="middle" x="143.04" y="-367.93" font-family="Hiragino Sans GB" font-size="12.00">N11</text>
<text xml:space="preserve" text-anchor="middle" x="143.04" y="-355.18" font-family="Hiragino Sans GB" font-size="12.00">保存未完成维修记录，</text>
<text xml:space="preserve" text-anchor="middle" x="143.04" y="-342.43" font-family="Hiragino Sans GB" font-size="12.00">工单状态保持“处理中”</text>
</g>
<!-- N12 -->
<g id="node12" class="node">
<title>N12</title>
<polygon fill="#f8fafc" stroke="#263238" stroke-width="1.5" points="468.56,-728.53 313.52,-728.53 313.52,-688.63 468.56,-688.63 468.56,-728.53"/>
<text xml:space="preserve" text-anchor="middle" x="391.04" y="-709.93" font-family="Hiragino Sans GB" font-size="12.00">N12</text>
<text xml:space="preserve" text-anchor="middle" x="391.04" y="-697.18" font-family="Hiragino Sans GB" font-size="12.00">填写维修过程与维修结果</text>
</g>
<!-- N13 -->
<g id="node13" class="node">
<title>N13</title>
<polygon fill="#fff3e0" stroke="#263238" stroke-width="1.5" points="457.04,-629.38 326,-589.48 457.04,-549.58 588.08,-589.48 457.04,-629.38"/>
<text xml:space="preserve" text-anchor="middle" x="457.04" y="-590.83" font-family="Hiragino Sans GB" font-size="12.00">N13</text>
<text xml:space="preserve" text-anchor="middle" x="457.04" y="-578.08" font-family="Hiragino Sans GB" font-size="12.00">维修记录是否完整？</text>
</g>
<!-- N14 -->
<g id="node14" class="node">
<title>N14</title>
<polygon fill="#fff3e0" stroke="#263238" stroke-width="1.5" points="457.04,-490.33 302,-450.43 457.04,-410.53 612.08,-450.43 457.04,-490.33"/>
<text xml:space="preserve" text-anchor="middle" x="457.04" y="-451.78" font-family="Hiragino Sans GB" font-size="12.00">N14</text>
<text xml:space="preserve" text-anchor="middle" x="457.04" y="-439.03" font-family="Hiragino Sans GB" font-size="12.00">保存维修记录是否成功？</text>
</g>
<!-- N15 -->
<g id="node15" class="node">
<title>N15</title>
<polygon fill="#fff3e0" stroke="#263238" stroke-width="1.5" points="371.04,-309.88 204,-257.23 371.04,-204.58 538.08,-257.23 371.04,-309.88"/>
<text xml:space="preserve" text-anchor="middle" x="371.04" y="-264.95" font-family="Hiragino Sans GB" font-size="12.00">N15</text>
<text xml:space="preserve" text-anchor="middle" x="371.04" y="-252.2" font-family="Hiragino Sans GB" font-size="12.00">更新工单状态为“待验收”</text>
<text xml:space="preserve" text-anchor="middle" x="371.04" y="-239.45" font-family="Hiragino Sans GB" font-size="12.00">是否成功？</text>
</g>
<!-- N16 -->
<g id="node16" class="node">
<title>N16</title>
<polygon fill="#ffebee" stroke="#263238" stroke-width="1.5" points="707.56,-145.33 528.52,-145.33 528.52,-105.43 707.56,-105.43 707.56,-145.33"/>
<text xml:space="preserve" text-anchor="middle" x="618.04" y="-126.73" font-family="Hiragino Sans GB" font-size="12.00">N16</text>
<text xml:space="preserve" text-anchor="middle" x="618.04" y="-113.98" font-family="Hiragino Sans GB" font-size="12.00">回滚本次变更并返回失败信息</text>
</g>
<!-- N17 -->
<g id="node17" class="node">
<title>N17</title>
<ellipse fill="#e8f5e9" stroke="#263238" stroke-width="1.5" cx="371.04" cy="-28.21" rx="92.66" ry="28.21"/>
<text xml:space="preserve" text-anchor="middle" x="371.04" y="-29.56" font-family="Hiragino Sans GB" font-size="12.00">N17</text>
<text xml:space="preserve" text-anchor="middle" x="371.04" y="-16.81" font-family="Hiragino Sans GB" font-size="12.00">返回处理结果并结束</text>
</g>
</g>
</svg>
