<?xml version="1.0" encoding="UTF-8" standalone="no"?>
<!DOCTYPE svg PUBLIC "-//W3C//DTD SVG 1.1//EN"
 "http://www.w3.org/Graphics/SVG/1.1/DTD/svg11.dtd">
<!-- Generated by graphviz version 15.1.1 (20260805.0921)
 -->
<!-- Title: acceptRepairResult Pages: 1 -->
<svg width="623pt" height="1485pt"
 viewBox="0.00 0.00 623.00 1485.00" xmlns="http://www.w3.org/2000/svg" xmlns:xlink="http://www.w3.org/1999/xlink">
<g id="graph0" class="graph" transform="scale(1 1) rotate(0) translate(18 1466.5)">
<title>acceptRepairResult</title>
<polygon fill="white" stroke="none" points="-18,18 -18,-1466.5 604.77,-1466.5 604.77,18 -18,18"/>
<text xml:space="preserve" text-anchor="middle" x="293.38" y="-1425.5" font-family="Hiragino Sans GB" font-size="20.00">AcceptanceServiceImpl.acceptRepairResult() 控制流图</text>
<!-- N1&#45;&gt;N2 -->
<g id="edge1" class="edge">
<title>N1&#45;&gt;N2</title>
<path fill="none" stroke="#455a64" stroke-width="1.25" d="M461.52,-1362.54C461.52,-1350.66 461.52,-1336.64 461.52,-1324.03"/>
<polygon fill="#455a64" stroke="#455a64" stroke-width="1.25" points="464.15,-1324.11 461.52,-1316.61 458.9,-1324.11 464.15,-1324.11"/>
</g>
<!-- N2&#45;&gt;N3 -->
<g id="edge2" class="edge">
<title>N2&#45;&gt;N3</title>
<path fill="none" stroke="#455a64" stroke-width="1.25" d="M461.52,-1260.78C461.52,-1249.32 461.52,-1235.46 461.52,-1222.2"/>
<polygon fill="#455a64" stroke="#455a64" stroke-width="1.25" points="464.15,-1222.54 461.52,-1215.04 458.9,-1222.54 464.15,-1222.54"/>
</g>
<!-- N3&#45;&gt;N4 -->
<g id="edge3" class="edge">
<title>N3&#45;&gt;N4</title>
<path fill="none" stroke="#455a64" stroke-width="1.25" d="M438.18,-1140.85C422.95,-1120.85 402.74,-1094.28 385.26,-1071.32"/>
<polygon fill="#455a64" stroke="#455a64" stroke-width="1.25" points="387.47,-1069.89 380.84,-1065.51 383.29,-1073.07 387.47,-1069.89"/>
<text xml:space="preserve" text-anchor="middle" x="416.97" y="-1098.18" font-family="Hiragino Sans GB" font-size="11.00">是</text>
</g>
<!-- N3&#45;&gt;N11 -->
<g id="edge4" class="edge">
<title>N3&#45;&gt;N11</title>
<path fill="none" stroke="#455a64" stroke-width="1.25" d="M484.86,-1140.85C518.22,-1097.03 575.52,-1021.73 575.52,-1021.73 575.52,-1021.73 575.52,-1021.73 575.52,-332.38 575.52,-332.38 524.52,-293.48 524.52,-293.48 524.52,-293.48 472.28,-262.53 433.53,-239.57"/>
<polygon fill="#455a64" stroke="#455a64" stroke-width="1.25" points="434.91,-237.34 427.12,-235.77 432.23,-241.85 434.91,-237.34"/>
<text xml:space="preserve" text-anchor="middle" x="581.14" y="-609.33" font-family="Hiragino Sans GB" font-size="11.00">否</text>
</g>
<!-- N4&#45;&gt;N5 -->
<g id="edge5" class="edge">
<title>N4&#45;&gt;N5</title>
<path fill="none" stroke="#455a64" stroke-width="1.25" d="M330.9,-972.74C324.27,-954.01 316.68,-932.56 310.16,-914.12"/>
<polygon fill="#455a64" stroke="#455a64" stroke-width="1.25" points="312.65,-913.31 307.68,-907.12 307.71,-915.06 312.65,-913.31"/>
<text xml:space="preserve" text-anchor="middle" x="325.06" y="-933.63" font-family="Hiragino Sans GB" font-size="11.00">是</text>
</g>
<!-- N4&#45;&gt;N11 -->
<g id="edge6" class="edge">
<title>N4&#45;&gt;N11</title>
<path fill="none" stroke="#455a64" stroke-width="1.25" d="M386.26,-979.98C429.52,-935.6 493.52,-869.93 493.52,-869.93 493.52,-869.93 493.52,-869.93 493.52,-332.38 493.52,-332.38 445.28,-276.45 415.48,-241.9"/>
<polygon fill="#455a64" stroke="#455a64" stroke-width="1.25" points="417.55,-240.27 410.66,-236.31 413.57,-243.7 417.55,-240.27"/>
<text xml:space="preserve" text-anchor="middle" x="499.14" y="-532.68" font-family="Hiragino Sans GB" font-size="11.00">否</text>
</g>
<!-- N5&#45;&gt;N6 -->
<g id="edge7" class="edge">
<title>N5&#45;&gt;N6</title>
<path fill="none" stroke="#455a64" stroke-width="1.25" d="M255.43,-840.33C214.32,-811.3 155.52,-769.78 155.52,-769.78 155.52,-769.78 126.62,-695.31 108.94,-649.73"/>
<polygon fill="#455a64" stroke="#455a64" stroke-width="1.25" points="111.41,-648.84 106.25,-642.8 106.51,-650.74 111.41,-648.84"/>
<text xml:space="preserve" text-anchor="middle" x="210.07" y="-794.58" font-family="Hiragino Sans GB" font-size="11.00">是</text>
</g>
<!-- N5&#45;&gt;N7 -->
<g id="edge8" class="edge">
<title>N5&#45;&gt;N7</title>
<path fill="none" stroke="#455a64" stroke-width="1.25" d="M294.52,-828.57C294.52,-813.57 294.52,-796.11 294.52,-779.55"/>
<polygon fill="#455a64" stroke="#455a64" stroke-width="1.25" points="297.15,-779.86 294.52,-772.36 291.9,-779.86 297.15,-779.86"/>
<text xml:space="preserve" text-anchor="middle" x="300.14" y="-794.58" font-family="Hiragino Sans GB" font-size="11.00">否</text>
</g>
<!-- N6&#45;&gt;N9 -->
<g id="edge9" class="edge">
<title>N6&#45;&gt;N9</title>
<path fill="none" stroke="#455a64" stroke-width="1.25" d="M104.7,-587.16C115.36,-556.94 131.52,-511.18 131.52,-511.18 131.52,-511.18 154.46,-488.59 173.88,-469.46"/>
<polygon fill="#455a64" stroke="#455a64" stroke-width="1.25" points="175.71,-471.34 179.21,-464.21 172.03,-467.6 175.71,-471.34"/>
</g>
<!-- N7&#45;&gt;N8 -->
<g id="edge10" class="edge">
<title>N7&#45;&gt;N8</title>
<path fill="none" stroke="#455a64" stroke-width="1.25" d="M280.73,-669.92C271.72,-639.72 260.14,-600.91 251.91,-573.31"/>
<polygon fill="#455a64" stroke="#455a64" stroke-width="1.25" points="254.45,-572.66 249.79,-566.22 249.42,-574.16 254.45,-572.66"/>
<text xml:space="preserve" text-anchor="middle" x="276.82" y="-609.33" font-family="Hiragino Sans GB" font-size="11.00">是</text>
</g>
<!-- N7&#45;&gt;N11 -->
<g id="edge11" class="edge">
<title>N7&#45;&gt;N11</title>
<path fill="none" stroke="#455a64" stroke-width="1.25" d="M317.74,-674.03C346.72,-621.51 392.52,-538.5 392.52,-538.5 392.52,-538.5 392.52,-538.5 392.52,-332.38 392.52,-332.38 392.52,-278.77 392.52,-244.09"/>
<polygon fill="#455a64" stroke="#455a64" stroke-width="1.25" points="395.15,-244.27 392.52,-236.77 389.9,-244.27 395.15,-244.27"/>
<text xml:space="preserve" text-anchor="middle" x="398.14" y="-437.4" font-family="Hiragino Sans GB" font-size="11.00">否</text>
</g>
<!-- N8&#45;&gt;N9 -->
<g id="edge12" class="edge">
<title>N8&#45;&gt;N9</title>
<path fill="none" stroke="#455a64" stroke-width="1.25" d="M230.1,-510.52C224.71,-498.26 218.27,-483.61 212.78,-471.11"/>
<polygon fill="#455a64" stroke="#455a64" stroke-width="1.25" points="215.33,-470.4 209.91,-464.59 210.53,-472.51 215.33,-470.4"/>
</g>
<!-- N9&#45;&gt;N10 -->
<g id="edge13" class="edge">
<title>N9&#45;&gt;N10</title>
<path fill="none" stroke="#455a64" stroke-width="1.25" d="M200.52,-421.63C200.52,-410.76 200.52,-396.72 200.52,-383.1"/>
<polygon fill="#455a64" stroke="#455a64" stroke-width="1.25" points="203.15,-383.16 200.52,-375.66 197.9,-383.16 203.15,-383.16"/>
</g>
<!-- N10&#45;&gt;N11 -->
<g id="edge15" class="edge">
<title>N10&#45;&gt;N11</title>
<path fill="none" stroke="#455a64" stroke-width="1.25" d="M243.61,-306.1C276.22,-286.21 320.69,-259.09 352.52,-239.67"/>
<polygon fill="#455a64" stroke="#455a64" stroke-width="1.25" points="353.68,-242.04 358.71,-235.9 350.94,-237.56 353.68,-242.04"/>
<text xml:space="preserve" text-anchor="middle" x="324.99" y="-259.03" font-family="Hiragino Sans GB" font-size="11.00">否</text>
</g>
<!-- N10&#45;&gt;N12 -->
<g id="edge14" class="edge">
<title>N10&#45;&gt;N12</title>
<path fill="none" stroke="#455a64" stroke-width="1.25" d="M209.28,-295.55C218.9,-255.11 234.13,-191.09 242.83,-154.49"/>
<polygon fill="#455a64" stroke="#455a64" stroke-width="1.25" points="245.28,-155.56 244.46,-147.65 240.17,-154.34 245.28,-155.56"/>
<text xml:space="preserve" text-anchor="middle" x="238.68" y="-209.45" font-family="Hiragino Sans GB" font-size="11.00">是</text>
</g>
<!-- N11&#45;&gt;N12 -->
<g id="edge16" class="edge">
<title>N11&#45;&gt;N12</title>
<path fill="none" stroke="#455a64" stroke-width="1.25" d="M360.43,-193.78C339.45,-181.03 311.9,-164.28 289.5,-150.67"/>
<polygon fill="#455a64" stroke="#455a64" stroke-width="1.25" points="290.89,-148.45 283.12,-146.8 288.17,-152.93 290.89,-148.45"/>
</g>
<!-- N12&#45;&gt;N13 -->
<g id="edge17" class="edge">
<title>N12&#45;&gt;N13</title>
<path fill="none" stroke="#455a64" stroke-width="1.25" d="M249.52,-105.12C249.52,-94.02 249.52,-79.68 249.52,-66.47"/>
<polygon fill="#455a64" stroke="#455a64" stroke-width="1.25" points="252.15,-66.49 249.52,-58.99 246.9,-66.49 252.15,-66.49"/>
</g>
<!-- N1 -->
<g id="node1" class="node">
<title>N1</title>
<ellipse fill="#e8f5e9" stroke="#263238" stroke-width="1.5" cx="461.52" cy="-1391.29" rx="33.26" ry="28.21"/>
<text xml:space="preserve" text-anchor="middle" x="461.52" y="-1392.64" font-family="Hiragino Sans GB" font-size="12.00">N1</text>
<text xml:space="preserve" text-anchor="middle" x="461.52" y="-1379.89" font-family="Hiragino Sans GB" font-size="12.00">开始</text>
</g>
<!-- N2 -->
<g id="node2" class="node">
<title>N2</title>
<polygon fill="#f8fafc" stroke="#263238" stroke-width="1.5" points="551.04,-1314.08 372,-1314.08 372,-1261.43 551.04,-1261.43 551.04,-1314.08"/>
<text xml:space="preserve" text-anchor="middle" x="461.52" y="-1295.48" font-family="Hiragino Sans GB" font-size="12.00">N2</text>
<text xml:space="preserve" text-anchor="middle" x="461.52" y="-1282.73" font-family="Hiragino Sans GB" font-size="12.00">读取验收信息与工单数据</text>
<text xml:space="preserve" text-anchor="middle" x="461.52" y="-1269.98" font-family="Hiragino Sans GB" font-size="12.00">（报修人、工单、维修记录）</text>
</g>
<!-- N3 -->
<g id="node3" class="node">
<title>N3</title>
<polygon fill="#fff3e0" stroke="#263238" stroke-width="1.5" points="461.52,-1212.43 354.48,-1172.53 461.52,-1132.63 568.56,-1172.53 461.52,-1212.43"/>
<text xml:space="preserve" text-anchor="middle" x="461.52" y="-1173.88" font-family="Hiragino Sans GB" font-size="12.00">N3</text>
<text xml:space="preserve" text-anchor="middle" x="461.52" y="-1161.13" font-family="Hiragino Sans GB" font-size="12.00">工单是否存在？</text>
</g>
<!-- N4 -->
<g id="node4" class="node">
<title>N4</title>
<polygon fill="#fff3e0" stroke="#263238" stroke-width="1.5" points="347.52,-1073.38 180.48,-1020.73 347.52,-968.08 514.56,-1020.73 347.52,-1073.38"/>
<text xml:space="preserve" text-anchor="middle" x="347.52" y="-1028.45" font-family="Hiragino Sans GB" font-size="12.00">N4</text>
<text xml:space="preserve" text-anchor="middle" x="347.52" y="-1015.7" font-family="Hiragino Sans GB" font-size="12.00">工单状态是否为“待验收”</text>
<text xml:space="preserve" text-anchor="middle" x="347.52" y="-1002.95" font-family="Hiragino Sans GB" font-size="12.00">且当前用户为报修人本人？</text>
</g>
<!-- N5 -->
<g id="node5" class="node">
<title>N5</title>
<polygon fill="#fff3e0" stroke="#263238" stroke-width="1.5" points="294.52,-908.83 163.48,-868.93 294.52,-829.03 425.56,-868.93 294.52,-908.83"/>
<text xml:space="preserve" text-anchor="middle" x="294.52" y="-870.28" font-family="Hiragino Sans GB" font-size="12.00">N5</text>
<text xml:space="preserve" text-anchor="middle" x="294.52" y="-857.53" font-family="Hiragino Sans GB" font-size="12.00">本次验收是否通过？</text>
</g>
<!-- N6 -->
<g id="node6" class="node">
<title>N6</title>
<polygon fill="#f8fafc" stroke="#263238" stroke-width="1.5" points="191.04,-640.48 0,-640.48 0,-587.83 191.04,-587.83 191.04,-640.48"/>
<text xml:space="preserve" text-anchor="middle" x="95.52" y="-621.88" font-family="Hiragino Sans GB" font-size="12.00">N6</text>
<text xml:space="preserve" text-anchor="middle" x="95.52" y="-609.13" font-family="Hiragino Sans GB" font-size="12.00">将工单状态更新为“已完成”，</text>
<text xml:space="preserve" text-anchor="middle" x="95.52" y="-596.38" font-family="Hiragino Sans GB" font-size="12.00">并进入服务评价阶段</text>
</g>
<!-- N7 -->
<g id="node7" class="node">
<title>N7</title>
<polygon fill="#fff3e0" stroke="#263238" stroke-width="1.5" points="294.52,-769.78 175.48,-717.13 294.52,-664.48 413.56,-717.13 294.52,-769.78"/>
<text xml:space="preserve" text-anchor="middle" x="294.52" y="-724.85" font-family="Hiragino Sans GB" font-size="12.00">N7</text>
<text xml:space="preserve" text-anchor="middle" x="294.52" y="-712.1" font-family="Hiragino Sans GB" font-size="12.00">返修原因是否填写</text>
<text xml:space="preserve" text-anchor="middle" x="294.52" y="-699.35" font-family="Hiragino Sans GB" font-size="12.00">且内容有效？</text>
</g>
<!-- N8 -->
<g id="node8" class="node">
<title>N8</title>
<polygon fill="#f8fafc" stroke="#263238" stroke-width="1.5" points="331.04,-563.83 152,-563.83 152,-511.18 331.04,-511.18 331.04,-563.83"/>
<text xml:space="preserve" text-anchor="middle" x="241.52" y="-545.23" font-family="Hiragino Sans GB" font-size="12.00">N8</text>
<text xml:space="preserve" text-anchor="middle" x="241.52" y="-532.48" font-family="Hiragino Sans GB" font-size="12.00">记录返修原因，</text>
<text xml:space="preserve" text-anchor="middle" x="241.52" y="-519.73" font-family="Hiragino Sans GB" font-size="12.00">将工单状态更新为“待返修”</text>
</g>
<!-- N9 -->
<g id="node9" class="node">
<title>N9</title>
<polygon fill="#f8fafc" stroke="#263238" stroke-width="1.5" points="290.04,-462.18 111,-462.18 111,-422.28 290.04,-422.28 290.04,-462.18"/>
<text xml:space="preserve" text-anchor="middle" x="200.52" y="-443.58" font-family="Hiragino Sans GB" font-size="12.00">N9</text>
<text xml:space="preserve" text-anchor="middle" x="200.52" y="-430.83" font-family="Hiragino Sans GB" font-size="12.00">保存验收记录与工单状态变更</text>
</g>
<!-- N10 -->
<g id="node10" class="node">
<title>N10</title>
<polygon fill="#fff3e0" stroke="#263238" stroke-width="1.5" points="200.52,-373.28 69.48,-333.38 200.52,-293.48 331.56,-333.38 200.52,-373.28"/>
<text xml:space="preserve" text-anchor="middle" x="200.52" y="-334.73" font-family="Hiragino Sans GB" font-size="12.00">N10</text>
<text xml:space="preserve" text-anchor="middle" x="200.52" y="-321.98" font-family="Hiragino Sans GB" font-size="12.00">保存操作是否成功？</text>
</g>
<!-- N11 -->
<g id="node11" class="node">
<title>N11</title>
<polygon fill="#ffebee" stroke="#263238" stroke-width="1.5" points="482.04,-234.23 303,-234.23 303,-194.33 482.04,-194.33 482.04,-234.23"/>
<text xml:space="preserve" text-anchor="middle" x="392.52" y="-215.63" font-family="Hiragino Sans GB" font-size="12.00">N11</text>
<text xml:space="preserve" text-anchor="middle" x="392.52" y="-202.88" font-family="Hiragino Sans GB" font-size="12.00">回滚本次变更并返回失败信息</text>
</g>
<!-- N12 -->
<g id="node12" class="node">
<title>N12</title>
<polygon fill="#f8fafc" stroke="#263238" stroke-width="1.5" points="309.04,-145.33 190,-145.33 190,-105.43 309.04,-105.43 309.04,-145.33"/>
<text xml:space="preserve" text-anchor="middle" x="249.52" y="-126.73" font-family="Hiragino Sans GB" font-size="12.00">N12</text>
<text xml:space="preserve" text-anchor="middle" x="249.52" y="-113.98" font-family="Hiragino Sans GB" font-size="12.00">返回验收处理结果</text>
</g>
<!-- N13 -->
<g id="node13" class="node">
<title>N13</title>
<ellipse fill="#e8f5e9" stroke="#263238" stroke-width="1.5" cx="249.52" cy="-28.21" rx="34.32" ry="28.21"/>
<text xml:space="preserve" text-anchor="middle" x="249.52" y="-29.56" font-family="Hiragino Sans GB" font-size="12.00">N13</text>
<text xml:space="preserve" text-anchor="middle" x="249.52" y="-16.81" font-family="Hiragino Sans GB" font-size="12.00">结束</text>
</g>
</g>
</svg>
